<svg width="40" height="40" viewBox="0 0 40 40" fill="none" xmlns="http://www.w3.org/2000/svg">
<path d="M32.186 8.67965C30.6772 8.2039 29.0188 8 27.4285 8C24.7778 8 21.9233 8.54372 19.9523 10.039C17.9813 8.54372 15.1268 8 12.4762 8C9.82552 8 6.97099 8.54372 5 10.039V29.9527C5 30.2925 5.33983 30.6324 5.67965 30.6324C5.81558 30.6324 5.88355 30.5644 6.01948 30.5644C7.85453 29.6808 10.5052 29.0692 12.4762 29.0692C15.1268 29.0692 17.9813 29.6129 19.9523 31.1081C21.7874 29.9527 25.1176 29.0692 27.4285 29.0692C29.6713 29.0692 31.9821 29.4769 33.8851 30.4964C34.0211 30.5644 34.089 30.5644 34.225 30.5644C34.5648 30.5644 34.9046 30.2246 34.9046 29.8847V10.039C34.089 9.42727 33.2055 9.01948 32.186 8.67965ZM32.186 27.0302C30.6908 26.5545 29.0596 26.3506 27.4285 26.3506C25.1176 26.3506 21.7874 27.2341 19.9523 28.3895V12.7576C21.7874 11.6021 25.1176 10.7186 27.4285 10.7186C29.0596 10.7186 30.6908 10.9225 32.186 11.3983V27.0302Z" fill="black"/>
<path d="M27.4294 16.1556C28.6255 16.1556 29.7809 16.278 30.8276 16.5091V14.4429C29.7538 14.239 28.5984 14.1167 27.4294 14.1167C25.1185 14.1167 23.0252 14.5109 21.3125 15.2449V17.5014C22.8485 16.6314 24.9826 16.1556 27.4294 16.1556Z" fill="black"/>
<path d="M21.3125 18.8606V21.1171C22.8485 20.2471 24.9826 19.7714 27.4294 19.7714C28.6255 19.7714 29.7809 19.8937 30.8276 20.1248V18.0587C29.7538 17.8548 28.5984 17.7324 27.4294 17.7324C25.1185 17.7324 23.0252 18.1402 21.3125 18.8606Z" fill="black"/>
<path d="M27.4294 21.3618C25.1185 21.3618 23.0252 21.756 21.3125 22.49V24.7465C22.8485 23.8765 24.9826 23.4008 27.4294 23.4008C28.6255 23.4008 29.7809 23.5231 30.8276 23.7542V21.688C29.7538 21.4706 28.5984 21.3618 27.4294 21.3618Z" fill="black"/>
</svg>
