<svg width="40" height="40" viewBox="0 0 40 40" fill="none" xmlns="http://www.w3.org/2000/svg">
<g clip-path="url(#clip0_478_2231)">
<path d="M16.9917 32.4333C16.9917 32.9789 17.4421 33.5245 18.1176 33.5245H22.621C23.2965 33.5245 23.7469 32.9789 23.7469 32.4333V31.3421H16.9917V32.4333ZM20.3693 11.7002C15.9784 11.7002 12.4883 15.083 12.4883 19.3387C12.4883 21.9576 13.8393 24.2492 15.8659 25.5586V28.0684C15.8659 28.614 16.3162 29.1597 16.9917 29.1597H23.7469C24.4224 29.1597 24.8727 28.614 24.8727 28.0684V25.5586C26.8993 24.1401 28.2503 21.8485 28.2503 19.3387C28.2503 15.083 24.7601 11.7002 20.3693 11.7002Z" fill="black"/>
<rect width="2.42493" height="6.06231" transform="matrix(4.37114e-08 1 1 -4.37114e-08 4 17.7622)" fill="black"/>
<rect x="18.5508" y="3.2124" width="2.42493" height="6.06231" fill="black"/>
<rect x="31.3184" y="6.00977" width="2.51744" height="5.59431" transform="rotate(45 31.3184 6.00977)" fill="black"/>
<rect width="2.51744" height="5.59431" transform="matrix(-0.707107 0.707107 0.707107 0.707107 9.00195 6.28955)" fill="black"/>
<rect x="36.7383" y="17.7622" width="2.42493" height="6.06231" transform="rotate(90 36.7383 17.7622)" fill="black"/>
</g>
<defs>
<clipPath id="clip0_478_2231">
<rect width="32.7365" height="32.7365" fill="white" transform="translate(4 2)"/>
</clipPath>
</defs>
</svg>
