<svg width="40" height="40" viewBox="0 0 40 40" fill="none" xmlns="http://www.w3.org/2000/svg">
<path d="M20 10C13.6364 10 8.20182 13.9393 6 19.5C8.20182 25.0607 13.6364 29 20 29C26.3636 29 31.7982 25.0607 34 19.5C31.7982 13.9393 26.3636 10 20 10ZM20 25.8333C16.4873 25.8333 13.6364 22.996 13.6364 19.5C13.6364 16.004 16.4873 13.1667 20 13.1667C23.5127 13.1667 26.3636 16.004 26.3636 19.5C26.3636 22.996 23.5127 25.8333 20 25.8333ZM20 15.7C17.8873 15.7 16.1818 17.3973 16.1818 19.5C16.1818 21.6027 17.8873 23.3 20 23.3C22.1127 23.3 23.8182 21.6027 23.8182 19.5C23.8182 17.3973 22.1127 15.7 20 15.7Z" fill="black"/>
</svg>
