<svg width="40" height="40" viewBox="0 0 40 40" fill="none" xmlns="http://www.w3.org/2000/svg">
<path d="M17.6591 24.928V23.36C17.6591 22.7627 17.7658 22.24 17.9791 21.792C18.2138 21.3227 18.5018 20.9067 18.8431 20.544C19.2058 20.16 19.5898 19.808 19.9951 19.488C20.4005 19.1467 20.7738 18.816 21.1151 18.496C21.4565 18.1547 21.7445 17.792 21.9791 17.408C22.2138 17.0027 22.3311 16.5653 22.3311 16.096C22.3311 15.8187 22.2885 15.5413 22.2031 15.264C22.1391 14.9867 22.0111 14.72 21.8191 14.464C21.6271 14.208 21.3605 14.0053 21.0191 13.856C20.6991 13.6853 20.2725 13.6 19.7391 13.6C19.1205 13.6 18.6191 13.696 18.2351 13.888C17.8725 14.08 17.5951 14.3253 17.4031 14.624C17.2111 14.9227 17.0725 15.2427 16.9871 15.584C16.9231 15.9253 16.8911 16.256 16.8911 16.576C16.8911 16.7253 16.8911 16.8747 16.8911 17.024C16.8911 17.152 16.9018 17.2907 16.9231 17.44H11.8991C11.8778 17.2907 11.8565 17.12 11.8351 16.928C11.8138 16.736 11.8031 16.5227 11.8031 16.288C11.8031 15.4987 11.9205 14.7627 12.1551 14.08C12.4111 13.3973 12.7738 12.7893 13.2431 12.256C13.7125 11.7013 14.2885 11.232 14.9711 10.848C15.6751 10.464 16.4538 10.1653 17.3071 9.952C18.1818 9.73867 19.1311 9.632 20.1551 9.632C21.0938 9.632 21.9578 9.728 22.7471 9.92C23.5578 10.0907 24.2831 10.3467 24.9231 10.688C25.5631 11.0293 26.0965 11.456 26.5231 11.968C26.9711 12.4587 27.3125 13.024 27.5471 13.664C27.8031 14.304 27.9311 15.008 27.9311 15.776C27.9311 16.6293 27.7925 17.3653 27.5151 17.984C27.2591 18.6027 26.9071 19.1467 26.4591 19.616C26.0325 20.064 25.5845 20.4693 25.1151 20.832C24.6458 21.1947 24.1978 21.5467 23.7711 21.888C23.3445 22.208 22.9925 22.5493 22.7151 22.912C22.4378 23.2533 22.2991 23.648 22.2991 24.096V24.928H17.6591ZM17.3711 32V26.912H22.6511V32H17.3711Z" fill="black"/>
</svg>
